<svg width="720" height="720" xmlns="http://www.w3.org/2000/svg" xmlns:xlink="http://www.w3.org/1999/xlink" xml:space="preserve" overflow="hidden"><defs><clipPath id="clip0"><rect x="280" y="0" width="720" height="720"/></clipPath></defs><g clip-path="url(#clip0)" transform="translate(-280 0)"><path d="M854.695 236.798C852.632 233.206 848.049 231.968 844.458 234.03L795.107 262.35 807.01 218.4C808.093 214.401 805.729 210.28 801.73 209.197 797.731 208.115 793.61 210.479 792.527 214.478L776.71 272.91 736.57 295.95 759.55 211.05C760.589 207.04 758.182 202.947 754.172 201.908 750.227 200.885 746.188 203.2 745.075 207.12L718.172 306.51 681.31 327.66C672.994 317.043 660.907 310.037 647.56 308.1L647.56 265.605 720.362 192.803C723.291 189.872 723.289 185.122 720.359 182.194 717.428 179.265 712.679 179.267 709.75 182.197L647.552 244.395 647.552 198.105 690.355 155.303C693.233 152.323 693.15 147.575 690.171 144.697 687.264 141.89 682.656 141.89 679.75 144.697L647.552 176.895 647.552 120C647.552 115.858 644.195 112.5 640.052 112.5 635.91 112.5 632.552 115.858 632.552 120L632.552 176.895 600.355 144.697C597.375 141.82 592.628 141.902 589.75 144.882 586.943 147.788 586.943 152.396 589.75 155.303L632.552 198.105 632.552 244.395 570.355 182.197C567.375 179.32 562.628 179.402 559.75 182.382 556.943 185.288 556.943 189.896 559.75 192.803L632.552 265.605 632.552 308.1C619.412 309.995 607.48 316.802 599.162 327.15L562.578 305.557 536.875 205.853C535.839 201.841 531.748 199.428 527.736 200.464 523.724 201.499 521.312 205.591 522.348 209.603L544.292 294.75 504.43 271.222 489.332 212.625C488.297 208.613 484.206 206.201 480.194 207.236 476.182 208.272 473.769 212.363 474.805 216.375L486.167 260.46 437.17 231.54C433.591 229.434 428.982 230.627 426.876 234.206 424.77 237.785 425.964 242.394 429.542 244.5L478.54 273.42 434.448 284.775C430.434 285.798 428.01 289.882 429.033 293.896 429.882 297.223 432.881 299.549 436.315 299.542 436.948 299.543 437.578 299.462 438.19 299.303L496.802 284.198 536.672 307.725 451.487 329.633C447.474 330.655 445.049 334.739 446.073 338.753 446.922 342.08 449.921 344.407 453.355 344.4 453.987 344.4 454.617 344.322 455.23 344.168L554.935 318.473 591.497 340.057C586.296 352.621 586.215 366.72 591.272 379.342L554.44 400.5 455.05 373.583C451.098 372.341 446.888 374.537 445.646 378.489 444.405 382.44 446.601 386.65 450.552 387.893 450.744 387.953 450.938 388.005 451.135 388.05L536.042 411.038 495.895 434.085 437.5 418.275C433.548 417.033 429.339 419.23 428.096 423.181 426.854 427.133 429.051 431.343 433.002 432.585 433.194 432.645 433.388 432.698 433.585 432.743L477.527 444.645 428.185 472.965C424.594 475.036 423.362 479.626 425.432 483.217 427.503 486.809 432.094 488.041 435.685 485.97L485.035 457.65 473.14 501.6C472.059 505.588 474.406 509.699 478.39 510.795 479.027 510.976 479.685 511.067 480.347 511.065 483.734 511.064 486.701 508.792 487.585 505.522L503.403 447.09 543.55 424.05 520.518 508.95C519.432 512.949 521.795 517.071 525.794 518.156 529.793 519.242 533.915 516.879 535 512.88L561.903 413.49 598.765 392.34C607.08 402.958 619.168 409.964 632.515 411.9L632.515 454.395 559.75 527.198C556.872 530.177 556.955 534.925 559.935 537.802 562.841 540.61 567.449 540.61 570.355 537.802L632.552 475.605 632.552 521.895 589.75 564.698C586.872 567.677 586.955 572.425 589.935 575.302 592.841 578.11 597.449 578.11 600.355 575.302L632.552 543.105 632.552 600C632.552 604.142 635.91 607.5 640.052 607.5 644.195 607.5 647.552 604.142 647.552 600L647.552 543.105 679.75 575.302C682.628 578.282 687.375 578.365 690.355 575.487 693.335 572.609 693.417 567.861 690.54 564.882 690.479 564.819 690.417 564.758 690.355 564.698L647.552 521.895 647.552 475.605 709.75 537.802C712.628 540.782 717.375 540.865 720.355 537.987 723.335 535.109 723.417 530.361 720.54 527.382 720.479 527.319 720.417 527.258 720.355 527.198L647.552 454.395 647.552 411.9C660.693 410.005 672.625 403.198 680.943 392.85L717.528 414.443 743.2 514.148C744.051 517.459 747.034 519.775 750.453 519.78 751.086 519.781 751.716 519.701 752.328 519.54 756.335 518.507 758.749 514.422 757.72 510.413L735.775 425.25 775.637 448.778 790.75 507.375C791.605 510.685 794.591 512.999 798.01 513 798.642 513.003 799.272 512.925 799.885 512.768 803.897 511.736 806.312 507.647 805.281 503.635 805.279 503.632 805.278 503.629 805.278 503.625L793.915 459.54 842.912 488.46C846.481 490.565 851.079 489.377 853.184 485.809 855.288 482.24 854.101 477.642 850.532 475.537L801.542 446.617 845.635 435.263C849.647 434.227 852.059 430.135 851.024 426.124 849.988 422.112 845.897 419.699 841.885 420.735L783.25 435.84 743.388 412.312 828.565 390.367C832.579 389.332 834.993 385.239 833.958 381.225 832.922 377.211 828.829 374.797 824.815 375.832L725.133 401.527 688.578 379.943C693.781 367.379 693.859 353.278 688.795 340.658L725.628 319.5 825.018 346.395C825.657 346.576 826.318 346.667 826.982 346.665 831.125 346.66 834.478 343.297 834.473 339.156 834.469 335.774 832.203 332.814 828.94 331.927L744.025 308.955 784.18 285.915 842.612 301.725C843.249 301.906 843.908 301.997 844.57 301.995 848.712 301.99 852.065 298.628 852.06 294.486 852.057 291.104 849.79 288.144 846.528 287.257L802.578 275.355 851.92 247.035C855.513 244.975 856.756 240.392 854.695 236.798 854.695 236.798 854.695 236.798 854.695 236.798ZM640.037 397.5C619.327 397.5 602.537 380.71 602.537 360 602.537 339.29 619.327 322.5 640.037 322.5 660.748 322.5 677.537 339.29 677.537 360 677.513 380.701 660.738 397.475 640.037 397.5Z"/></g></svg>