<svg width="720" height="720" xmlns="http://www.w3.org/2000/svg" xmlns:xlink="http://www.w3.org/1999/xlink" xml:space="preserve" overflow="hidden"><defs><clipPath id="clip0"><rect x="230" y="0" width="720" height="720"/></clipPath></defs><g clip-path="url(#clip0)" transform="translate(-230 0)"><path d="M687.5 382.5 770 382.5C671.975 309 665 255 665 255L755 255C637.85 135 590 34.725 590 34.725 551.215 119.004 494.975 194.085 425 255L515 255C515 255 502.175 291.3 410 382.5L492.5 382.5C492.5 382.5 492.5 424.2 361.25 562.5L552.5 562.5 552.5 682.5 620 682.5 620 562.5 818.75 562.5C713.6 462.225 687.5 382.5 687.5 382.5ZM569.6 158.1C578.63 158.1 585.95 165.42 585.95 174.45 585.95 183.48 578.63 190.8 569.6 190.8 560.57 190.8 553.25 183.48 553.25 174.45 553.291 165.437 560.587 158.141 569.6 158.1ZM657.5 181.2 677.525 208.5C635.254 246.731 583.008 272.191 526.85 281.925 531.739 270.962 535.096 259.379 536.825 247.5 628.775 222.15 657.5 181.2 657.5 181.2ZM555.05 511.2C521.108 510.958 487.389 505.676 455 495.525L476.15 468.225C524.525 481.5 601.85 490.2 678.65 445.725 590.975 421.35 536.825 359.4 508.85 317.1 513.125 309.15 520.25 295.725 525.875 283.275 545 316.8 590 380.775 670.7 409.35L672.425 414.525C677 428.475 696.8 457.575 704.3 468.45 659.477 496.549 607.577 511.3 554.675 510.975ZM516.5 423.6C516.5 414.57 523.82 407.25 532.85 407.25 541.88 407.25 549.2 414.57 549.2 423.6 549.2 432.63 541.88 439.95 532.85 439.95 523.82 439.95 516.5 432.63 516.5 423.6ZM621.5 315.45C621.5 306.42 628.82 299.1 637.85 299.1 646.88 299.1 654.2 306.42 654.2 315.45 654.2 324.48 646.88 331.8 637.85 331.8 628.82 331.841 621.466 324.555 621.425 315.525 621.425 315.5 621.425 315.475 621.425 315.45Z"/></g></svg>